<svg width="44" height="44" viewBox="0 0 44 44" fill="none" xmlns="http://www.w3.org/2000/svg">
    <path d="M19.8 32.8182L15 35H31V11.8333C31 11.3731 30.6269 11 30.1667 11C29.7333 11 29.3723 11.3322 29.3363 11.7641L28.7743 18.5087C28.6584 19.8997 28.4092 21.2763 28.0303 22.6197L27.5927 24.1715C27.2005 25.5619 26.5712 26.8741 25.7326 28.0504C24.7219 29.468 23.4274 30.6597 21.9313 31.55L19.8 32.8182Z" fill="#989898"/>
    <path d="M17.5 11.0526H14C13.4477 11.0526 13 11.5003 13 12.0526V34C13 34.5523 13.4477 35 14 35H30C30.5523 35 31 34.5523 31 34V12.0526C31 11.5003 30.5523 11.0526 30 11.0526H26.5M17.5 11.0526L17.9233 9.70113C18.0539 9.28395 18.4404 9 18.8776 9H25.1224C25.5596 9 25.9461 9.28395 26.0767 9.70113L26.5 11.0526M17.5 11.0526L17.2639 11.8064C17.0622 12.4504 17.5433 13.1053 18.2182 13.1053H25.7818C26.4567 13.1053 26.9378 12.4504 26.7361 11.8064L26.5 11.0526M28.4286 24.3947H21.4852M28.4286 18.2368H21.4852M28.4286 30.5526H21.4852M18.7857 24.3947V22.8842C18.7857 22.7738 18.6962 22.6842 18.5857 22.6842H15.7714C15.661 22.6842 15.5714 22.7738 15.5714 22.8842V25.9053C15.5714 26.0157 15.661 26.1053 15.7714 26.1053H18.5857C18.6962 26.1053 18.7857 26.0157 18.7857 25.9053V24.3947ZM18.7857 18.2368V16.7263C18.7857 16.6159 18.6962 16.5263 18.5857 16.5263H15.7714C15.661 16.5263 15.5714 16.6159 15.5714 16.7263V19.7474C15.5714 19.8578 15.661 19.9474 15.7714 19.9474H18.5857C18.6962 19.9474 18.7857 19.8578 18.7857 19.7474V18.2368ZM18.7857 30.5526V29.0421C18.7857 28.9316 18.6962 28.8421 18.5857 28.8421H15.7714C15.661 28.8421 15.5714 28.9316 15.5714 29.0421V32.0632C15.5714 32.1736 15.661 32.2632 15.7714 32.2632H18.5857C18.6962 32.2632 18.7857 32.1736 18.7857 32.0632V30.5526Z" stroke="white" stroke-width="1.5" stroke-linecap="round" stroke-linejoin="round"/>
</svg>
