<svg width="22" height="20" viewBox="0 0 22 20" fill="none" xmlns="http://www.w3.org/2000/svg">
    <path fill-rule="evenodd" clip-rule="evenodd" d="M6.96721 1.75534C6.89599 1.75043 6.81557 1.75 6.58261 1.75H5.75523C4.92422 1.75 4.34494 1.75056 3.89357 1.78653C3.45062 1.82183 3.19558 1.88767 3.00214 1.98339C2.56009 2.20214 2.20216 2.56006 1.98342 3.00211C1.8877 3.19555 1.82186 3.45059 1.78656 3.89354C1.75059 4.34491 1.75003 4.92419 1.75003 5.7552V15.1904C1.75003 15.9818 1.75426 16.259 1.80038 16.4733C1.98647 17.3381 2.66195 18.0136 3.52669 18.1996C3.6707 18.2306 3.84313 18.2427 4.18083 18.2473L5.27627 12.0363L5.28128 12.0078C5.40138 11.3268 5.49875 10.7747 5.61251 10.3286C5.73017 9.86719 5.87738 9.46693 6.12276 9.10316C6.51572 8.52062 7.06444 8.06021 7.70637 7.77441C8.10724 7.59594 8.52699 7.52049 9.00184 7.48476C9.46091 7.45021 10.0215 7.45022 10.713 7.45022H10.7419H17.3843C17.3802 7.36714 17.3741 7.30466 17.3651 7.2479C17.2125 6.28524 16.4576 5.53025 15.4949 5.37772C15.3346 5.35233 15.1288 5.35 14.5426 5.35H12.5602L12.5338 5.35C12.3371 5.35002 12.2017 5.35003 12.0723 5.3411C10.8697 5.2581 9.78031 4.60201 9.14452 3.57783C9.07612 3.46765 9.01281 3.34797 8.92083 3.17409L8.90848 3.15076C8.79954 2.94484 8.76155 2.87396 8.7239 2.8133C8.34242 2.1988 7.68878 1.80514 6.96721 1.75534ZM10.2343 2.44925L10.222 2.42593C10.13 2.25204 10.0667 2.13236 9.9983 2.02217C9.36251 0.997992 8.27311 0.341906 7.07049 0.258903C6.94111 0.249973 6.80572 0.249985 6.60901 0.250001L6.58261 0.250003H5.75523L5.72394 0.250003C4.93153 0.249996 4.29239 0.24999 3.7744 0.291272C3.24118 0.333768 2.77231 0.42352 2.33688 0.638989C1.60013 1.00356 1.00359 1.6001 0.639018 2.33685C0.42355 2.77228 0.333797 3.24115 0.291302 3.77437C0.250019 4.29236 0.250025 4.93151 0.250032 5.72391L0.250032 5.7552V15.1904C0.250032 15.2221 0.250024 15.2533 0.250016 15.2841C0.249839 15.9461 0.249718 16.3975 0.333953 16.7889C0.644091 18.2301 1.7699 19.3559 3.21113 19.6661C3.60258 19.7503 4.05392 19.7502 4.71593 19.75C4.74671 19.75 4.77795 19.75 4.80965 19.75H13.3809H15.0678H15.0967C15.7881 19.75 16.3488 19.75 16.8078 19.7155C17.2827 19.6797 17.7024 19.6043 18.1033 19.4258C18.7452 19.14 19.294 18.6796 19.6869 18.0971C19.9323 17.7333 20.0795 17.333 20.1972 16.8716C20.3109 16.4255 20.4083 15.8734 20.5284 15.1924L20.5334 15.164L21.2424 11.1441C21.5375 9.47077 20.4586 7.91835 18.8883 7.53848C18.883 7.33953 18.8715 7.17035 18.8466 7.01316C18.5924 5.40874 17.3341 4.15042 15.7296 3.89621C15.4369 3.84983 15.1027 3.8499 14.612 3.84999C14.5892 3.85 14.5661 3.85 14.5426 3.85H12.5602C12.3273 3.85 12.2468 3.84958 12.1756 3.84466C11.454 3.79486 10.8004 3.40121 10.4189 2.7867C10.3813 2.72604 10.3433 2.65516 10.2343 2.44925ZM18.1427 8.95022H10.7419C10.0147 8.95022 9.51058 8.95071 9.1144 8.98053C8.72764 9.00963 8.49812 9.06386 8.31646 9.14473C7.9313 9.31621 7.60207 9.59246 7.3663 9.94198C7.2551 10.1068 7.16183 10.3234 7.06599 10.6993C6.96782 11.0842 6.87978 11.5806 6.75347 12.2968L5.7035 18.25H13.3809H15.0678C15.795 18.25 16.2991 18.2495 16.6953 18.2197C17.082 18.1906 17.3116 18.1364 17.4932 18.0555C17.8784 17.884 18.2076 17.6078 18.4434 17.2582C18.5546 17.0934 18.6478 16.8768 18.7437 16.5009C18.8419 16.116 18.9299 15.6196 19.0562 14.9034L19.7652 10.8836C19.9431 9.87489 19.1671 8.95014 18.1428 8.95022C18.1428 8.95022 18.1428 8.95022 18.1428 8.95022C18.1428 8.95022 18.1427 8.95022 18.1427 8.95022Z" fill="#DE3A3A"/>
</svg>
