<svg width="16" height="16" viewBox="0 0 16 16" fill="none" xmlns="http://www.w3.org/2000/svg">
    <path d="M12.5 8.5L12.7865 9.07295C12.9269 9.35379 13 9.66347 13 9.97746V9.97746C13 11.0945 12.0945 12 10.9775 12H10M6 12H4.9754C3.88442 12 3 11.1156 3 10.0246V10.0246C3 9.68082 3.08971 9.343 3.26027 9.04452L5 6L5.20313 4.37498C5.37273 3.01818 6.5261 2 7.89346 2H8.88197C9.56717 2 10.1936 2.38713 10.5 3V3M6 12L6.55279 13.1056C6.82687 13.6537 7.38713 14 8 14V14C8.61287 14 9.17313 13.6537 9.44721 13.1056L10 12M6 12V12C7.25903 11.3705 8.74097 11.3705 10 12V12" stroke="white" stroke-width="1.5" stroke-linecap="round"/>
    <path d="M11.75 7C12.4404 7 13 6.44036 13 5.75C13 5.05964 12.4404 4.5 11.75 4.5C11.0596 4.5 10.5 5.05964 10.5 5.75C10.5 6.44036 11.0596 7 11.75 7Z" fill="white"/>
</svg>
