<svg width="44" height="44" viewBox="0 0 44 44" fill="none" xmlns="http://www.w3.org/2000/svg">
    <path d="M17.5485 24.2257L16 25H26V13.5811C26 13.2602 25.7398 13 25.4189 13C25.1687 13 24.9466 13.1601 24.8675 13.3974L24 16L23.564 17.308C23.1909 18.4272 22.6228 19.4715 21.8858 20.3927L21 21.5L20.1475 22.3525C19.3875 23.1125 18.5099 23.7451 17.5485 24.2257Z" fill="#999999"/>
    <path d="M21.3598 28.8801L21 29H26V25.309C26 25.1384 25.8616 25 25.691 25C25.5739 25 25.4669 25.0661 25.4146 25.1708L25 26C24.6702 26.6595 24.2076 27.2437 23.6411 27.7157L23.5 27.8333C22.8363 28.2758 22.1166 28.6278 21.3598 28.8801Z" fill="#999999"/>
    <path d="M32.1297 28.9028L32 29H37V23.0707C37 22.3607 36.8964 21.6545 36.6923 20.9745L36.0924 18.9746C35.7251 17.7503 34.74 16.81 33.5 16.5L34.4228 18.6531C34.8055 19.5462 35.0545 20.4908 35.1618 21.4564L35.2653 22.388C35.4182 23.7638 35.1514 25.1536 34.5 26.375L34.4502 26.4498C33.8213 27.3931 33.0366 28.2225 32.1297 28.9028Z" fill="#999999"/>
    <path d="M26 16V14C26 13.4477 25.5523 13 25 13H8C7.44772 13 7 13.4477 7 14V25M26 16H29M26 16V25M37 23V22L36.2575 19.0299C35.8123 17.2492 34.2124 16 32.3769 16H29M37 23L31 22.25M37 23V26M29 16V21.1172C29 21.6215 29.3755 22.0469 29.876 22.1095L31 22.25M31 22.25V24.5M37 26V28C37 28.5523 36.5523 29 36 29H33M37 26H35M15.5 29H22H26M15.5 29V29C15.5 27.8954 14.6046 27 13.5 27V27C12.3954 27 11.5 27.8954 11.5 29V29M15.5 29V29C15.5 30.1046 14.6046 31 13.5 31V31C12.3954 31 11.5 30.1046 11.5 29V29M11.5 29H8C7.44772 29 7 28.5523 7 28V25M29 29H26M33 29V29C33 27.8954 32.1046 27 31 27V27C29.8954 27 29 27.8954 29 29V29C29 30.1046 29.8954 31 31 31V31C32.1046 31 33 30.1046 33 29V29ZM26 29V25M26 25H7" stroke="white" stroke-width="1.5" stroke-linecap="round"/>
</svg>
