<svg width="24" height="24" viewBox="0 0 24 24" fill="none" xmlns="http://www.w3.org/2000/svg">
    <path fill-rule="evenodd" clip-rule="evenodd" d="M11.7503 3.5C7.21303 3.5 3.5 7.28623 3.5 12.0003C3.5 16.7145 7.21303 20.5007 11.7503 20.5007C16.2876 20.5007 20.0006 16.7145 20.0006 12.0003C20.0006 11.6798 19.9834 11.3636 19.95 11.0527C19.9057 10.6409 20.2036 10.2711 20.6155 10.2268C21.0273 10.1825 21.3971 10.4805 21.4414 10.8923C21.4805 11.2564 21.5006 11.6261 21.5006 12.0003C21.5006 17.5039 17.1545 22.0007 11.7503 22.0007C6.34612 22.0007 2 17.5039 2 12.0003C2 6.49681 6.34612 2 11.7503 2C13.3091 2 14.784 2.37573 16.0916 3.04362C16.4605 3.23203 16.6068 3.68381 16.4184 4.05269C16.23 4.42157 15.7782 4.56787 15.4093 4.37946C14.3069 3.81641 13.0653 3.5 11.7503 3.5ZM21.7873 3.76777C22.0766 4.06414 22.071 4.53898 21.7746 4.82835L11.7742 14.5926C11.6318 14.7317 11.4398 14.8085 11.2407 14.8059C11.0416 14.8034 10.8516 14.7217 10.7127 14.579L8.21266 12.0095C7.92381 11.7126 7.93031 11.2377 8.22719 10.9489C8.52407 10.66 8.9989 10.6665 9.28775 10.9634L11.2639 12.9945L20.7267 3.7551C21.023 3.46572 21.4979 3.4714 21.7873 3.76777Z" fill="#111111"/>
</svg>
