<svg width="16" height="16" viewBox="0 0 16 16" fill="none" xmlns="http://www.w3.org/2000/svg">
<path d="M2.75 11V6.41667H3C5.07107 6.41667 6.75 4.73773 6.75 2.66667V1.75H10C11.7949 1.75 13.25 3.20507 13.25 5V11C13.25 12.7949 11.7949 14.25 10 14.25H6C4.20507 14.25 2.75 12.7949 2.75 11ZM5.25 1.83697V2.66667C5.25 3.90931 4.24264 4.91667 3 4.91667H2.75105C2.7888 3.41683 3.84264 2.16941 5.25 1.83697ZM8.75 6.7037C8.75 6.28949 8.41421 5.9537 8 5.9537C7.58579 5.9537 7.25 6.28949 7.25 6.7037V8.02778H6C5.58579 8.02778 5.25 8.36356 5.25 8.77778C5.25 9.19199 5.58579 9.52778 6 9.52778H7.25V10.8519C7.25 11.2661 7.58579 11.6019 8 11.6019C8.41421 11.6019 8.75 11.2661 8.75 10.8519V9.52778H10C10.4142 9.52778 10.75 9.19199 10.75 8.77778C10.75 8.36356 10.4142 8.02778 10 8.02778H8.75V6.7037Z" stroke="white" stroke-width="0.8" stroke-linecap="round" stroke-linejoin="round"/>
</svg>
