<svg width="20" height="20" viewBox="0 0 20 20" fill="none" xmlns="http://www.w3.org/2000/svg">
    <path fill-rule="evenodd" clip-rule="evenodd" d="M12.3366 0.916504L12.367 0.916505H12.6337L12.6641 0.916504C13.1982 0.916494 13.6441 0.916485 14.0083 0.946244C14.3882 0.977282 14.7449 1.04439 15.0821 1.21624C15.5996 1.47989 16.0203 1.90059 16.2839 2.41803C16.4558 2.75529 16.5229 3.11195 16.5539 3.49183C16.572 3.71371 16.5791 3.96588 16.5819 4.24984H18.3337C18.7479 4.24984 19.0837 4.58562 19.0837 4.99984C19.0837 5.41405 18.7479 5.74984 18.3337 5.74984H16.5819C16.5791 6.0338 16.572 6.28596 16.5539 6.50784C16.5229 6.88773 16.4558 7.24438 16.2839 7.58164C16.0203 8.09909 15.5996 8.51979 15.0821 8.78344C14.7449 8.95528 14.3882 9.02239 14.0083 9.05343C13.6441 9.08319 13.1982 9.08318 12.6641 9.08317H12.6337H12.367H12.3366C11.8024 9.08318 11.3566 9.08319 10.9923 9.05343C10.6124 9.02239 10.2558 8.95528 9.91852 8.78344C9.40107 8.51979 8.98038 8.09909 8.71672 7.58164C8.54488 7.24438 8.47777 6.88773 8.44673 6.50784C8.41697 6.14361 8.41698 5.69777 8.41699 5.16362V5.1636L8.41699 5.13317V4.8665L8.41699 4.83607V4.83605C8.41698 4.30191 8.41697 3.85606 8.44673 3.49183C8.47777 3.11195 8.54488 2.75529 8.71672 2.41803C8.98038 1.90059 9.40107 1.47989 9.91852 1.21624C10.2558 1.04439 10.6124 0.977282 10.9923 0.946244C11.3566 0.916485 11.8024 0.916494 12.3366 0.916504ZM15.0837 4.86651V4.99984V5.13317C15.0837 5.7056 15.0831 6.08981 15.0589 6.38569C15.0354 6.67282 14.9936 6.8101 14.9474 6.90066C14.8276 7.13586 14.6363 7.32709 14.4011 7.44693C14.3106 7.49307 14.1733 7.53495 13.8862 7.55841C13.5903 7.58259 13.2061 7.58317 12.6337 7.58317H12.367C11.7946 7.58317 11.4103 7.58259 11.1145 7.55841C10.8273 7.53495 10.6901 7.49307 10.5995 7.44693C10.3643 7.32709 10.1731 7.13586 10.0532 6.90066C10.0071 6.8101 9.96521 6.67282 9.94175 6.38569C9.91758 6.08981 9.91699 5.7056 9.91699 5.13317V4.8665C9.91699 4.29408 9.91758 3.90986 9.94175 3.61398C9.96521 3.32686 10.0071 3.18958 10.0532 3.09902C10.1731 2.86381 10.3643 2.67259 10.5995 2.55275C10.6901 2.5066 10.8273 2.46472 11.1145 2.44126C11.4103 2.41709 11.7946 2.4165 12.367 2.4165H12.6337C13.2061 2.4165 13.5903 2.41709 13.8862 2.44126C14.1733 2.46472 14.3106 2.5066 14.4011 2.55275C14.6363 2.67259 14.8276 2.86381 14.9474 3.09902C14.9936 3.18958 15.0354 3.32686 15.0589 3.61398C15.0831 3.90986 15.0837 4.29408 15.0837 4.86651ZM1.66699 14.2498C1.25278 14.2498 0.916992 14.5856 0.916992 14.9998C0.916992 15.4141 1.25278 15.7498 1.66699 15.7498H3.41876C3.42152 16.0338 3.4286 16.286 3.44673 16.5078C3.47777 16.8877 3.54488 17.2444 3.71672 17.5816C3.98038 18.0991 4.40107 18.5198 4.91852 18.7834C5.25578 18.9553 5.61244 19.0224 5.99232 19.0534C6.35656 19.0832 6.80241 19.0832 7.33656 19.0832H7.36699H7.63366H7.66409C8.19824 19.0832 8.64409 19.0832 9.00833 19.0534C9.38821 19.0224 9.74487 18.9553 10.0821 18.7834C10.5996 18.5198 11.0203 18.0991 11.2839 17.5816C11.4558 17.2444 11.5229 16.8877 11.5539 16.5078C11.5837 16.1436 11.5837 15.6978 11.5837 15.1636V15.1636V15.1332V14.8665V14.8361V14.836C11.5837 14.3019 11.5837 13.8561 11.5539 13.4918C11.5229 13.1119 11.4558 12.7553 11.2839 12.418C11.0203 11.9006 10.5996 11.4799 10.0821 11.2162C9.74487 11.0444 9.38821 10.9773 9.00833 10.9462C8.6441 10.9165 8.19825 10.9165 7.6641 10.9165H7.63366H7.36699H7.33656C6.8024 10.9165 6.35656 10.9165 5.99232 10.9462C5.61244 10.9773 5.25578 11.0444 4.91852 11.2162C4.40107 11.4799 3.98038 11.9006 3.71672 12.418C3.54488 12.7553 3.47777 13.1119 3.44673 13.4918C3.4286 13.7137 3.42152 13.9659 3.41876 14.2498H1.66699ZM4.91699 14.9998V15.1332C4.91699 15.7056 4.91758 16.0898 4.94175 16.3857C4.96521 16.6728 5.00709 16.8101 5.05323 16.9007C5.17308 17.1359 5.3643 17.3271 5.5995 17.4469C5.69006 17.4931 5.82735 17.535 6.11447 17.5584C6.41035 17.5826 6.79456 17.5832 7.36699 17.5832H7.63366C8.20609 17.5832 8.5903 17.5826 8.88618 17.5584C9.1733 17.535 9.31059 17.4931 9.40115 17.4469C9.63635 17.3271 9.82757 17.1359 9.94742 16.9007C9.99356 16.8101 10.0354 16.6728 10.0589 16.3857C10.0831 16.0898 10.0837 15.7056 10.0837 15.1332V14.8665C10.0837 14.2941 10.0831 13.9099 10.0589 13.614C10.0354 13.3269 9.99356 13.1896 9.94742 13.099C9.82757 12.8638 9.63635 12.6726 9.40115 12.5527C9.31059 12.5066 9.1733 12.4647 8.88618 12.4413C8.5903 12.4171 8.20609 12.4165 7.63366 12.4165H7.36699C6.79456 12.4165 6.41035 12.4171 6.11447 12.4413C5.82735 12.4647 5.69006 12.5066 5.5995 12.5527C5.3643 12.6726 5.17308 12.8638 5.05323 13.099C5.00709 13.1896 4.96521 13.3269 4.94175 13.614C4.91758 13.9099 4.91699 14.2941 4.91699 14.8665V14.9998ZM12.5837 14.9998C12.5837 14.5856 12.9194 14.2498 13.3337 14.2498L18.3337 14.2498C18.7479 14.2498 19.0837 14.5856 19.0837 14.9998C19.0837 15.4141 18.7479 15.7498 18.3337 15.7498L13.3337 15.7498C12.9194 15.7498 12.5837 15.4141 12.5837 14.9998ZM1.66699 4.24984C1.25278 4.24984 0.916992 4.58562 0.916992 4.99984C0.916992 5.41405 1.25278 5.74984 1.66699 5.74984H6.66699C7.08121 5.74984 7.41699 5.41405 7.41699 4.99984C7.41699 4.58562 7.08121 4.24984 6.66699 4.24984H1.66699Z" fill="#5FA6DC"/>
</svg>
