<svg width="16" height="16" viewBox="0 0 16 16" fill="none" xmlns="http://www.w3.org/2000/svg">
    <path fill-rule="evenodd" clip-rule="evenodd" d="M2.5625 4.74776C2.5625 4.05864 3.12114 3.5 3.81026 3.5H6.77945C6.92136 3.5 7.04812 3.58877 7.09664 3.72213C7.36078 4.44816 8.05086 4.93143 8.82344 4.93143H12.8797C13.2561 4.93143 13.5612 5.23651 13.5612 5.61286V9.52725C13.5612 10.1134 13.086 10.5886 12.4998 10.5886C12.0856 10.5886 11.7498 10.9244 11.7498 11.3386C11.7498 11.7528 12.0856 12.0886 12.4998 12.0886C13.9144 12.0886 15.0612 10.9418 15.0612 9.52725V5.61286C15.0612 4.40809 14.0845 3.43143 12.8797 3.43143H8.82344C8.68153 3.43143 8.55477 3.34266 8.50625 3.20929C8.24211 2.48326 7.55204 2 6.77945 2H3.81026C2.29271 2 1.0625 3.23022 1.0625 4.74776V9.77624C1.0625 11.0533 2.09777 12.0886 3.37483 12.0886C3.78905 12.0886 4.12483 11.7528 4.12483 11.3386C4.12483 10.9244 3.78905 10.5886 3.37483 10.5886C2.92619 10.5886 2.5625 10.2249 2.5625 9.77624V4.74776ZM5.74985 9.30769C5.74985 8.4474 6.44725 7.75 7.30754 7.75C8.16783 7.75 8.86523 8.4474 8.86523 9.30769C8.86523 10.168 8.16783 10.8654 7.30754 10.8654C6.44725 10.8654 5.74985 10.168 5.74985 9.30769ZM10.3652 9.30769C10.3652 7.61898 8.99626 6.25 7.30754 6.25C5.61882 6.25 4.24985 7.61898 4.24985 9.30769C4.24985 10.9964 5.61882 12.3654 7.30754 12.3654C7.87992 12.3654 8.41556 12.2081 8.87362 11.9344L10.4695 13.5303C10.7624 13.8232 11.2373 13.8232 11.5302 13.5303C11.8231 13.2374 11.8231 12.7626 11.5302 12.4697L9.93428 10.8738C10.208 10.4157 10.3652 9.88007 10.3652 9.30769Z" fill="white"/>
</svg>
