<svg width="16" height="16" viewBox="0 0 16 16" fill="none" xmlns="http://www.w3.org/2000/svg">
    <path fill-rule="evenodd" clip-rule="evenodd" d="M2.49744 7.99456C2.49744 7.39698 2.87004 6.25844 3.78496 5.26106C4.67162 4.29449 6.03951 3.49414 7.99939 3.49414C9.95927 3.49414 11.3272 4.29449 12.2138 5.26106C13.1287 6.25844 13.5013 7.39698 13.5013 7.99456C13.5013 8.59213 13.1287 9.73068 12.2138 10.7281C11.3272 11.6946 9.95927 12.495 7.99939 12.495C6.03951 12.495 4.67162 11.6946 3.78496 10.7281C2.87004 9.73068 2.49744 8.59213 2.49744 7.99456ZM7.99939 1.99414C5.5829 1.99414 3.82482 2.99863 2.67959 4.24708C1.56262 5.46472 0.997437 6.95138 0.997437 7.99456C0.997437 9.03774 1.56262 10.5244 2.67959 11.742C3.82482 12.9905 5.5829 13.995 7.99939 13.995C10.4159 13.995 12.174 12.9905 13.3192 11.742C14.4362 10.5244 15.0013 9.03774 15.0013 7.99456C15.0013 6.95138 14.4362 5.46472 13.3192 4.24708C12.174 2.99863 10.4159 1.99414 7.99939 1.99414ZM6.87374 7.9943C6.87374 7.28638 7.41158 6.77539 7.99933 6.77539C8.58707 6.77539 9.12491 7.28638 9.12491 7.9943C9.12491 8.70222 8.58707 9.2132 7.99933 9.2132C7.41158 9.2132 6.87374 8.70222 6.87374 7.9943ZM7.99933 5.27539C6.51535 5.27539 5.37374 6.52742 5.37374 7.9943C5.37374 9.46117 6.51535 10.7132 7.99933 10.7132C9.4833 10.7132 10.6249 9.46117 10.6249 7.9943C10.6249 6.52742 9.4833 5.27539 7.99933 5.27539Z" fill="#50A7EA"/>
</svg>
