<svg width="16" height="16" viewBox="0 0 16 16" fill="none" xmlns="http://www.w3.org/2000/svg">
    <path fill-rule="evenodd" clip-rule="evenodd" d="M1.1569 1.48276C1.44256 1.18281 1.91729 1.17123 2.21724 1.4569L4.19528 3.34075L7.03229 6.04265L10.0021 8.87108L12.8392 11.573L14.8172 13.4569C15.1172 13.7426 15.1288 14.2173 14.8431 14.5172C14.5574 14.8172 14.0827 14.8288 13.7828 14.5431L12.2197 13.0545C11.0918 13.6786 9.6887 14.0833 8 14.0833C5.34664 14.0833 3.40877 13.0846 2.13511 11.8249C0.892824 10.5963 0.25 9.08109 0.25 8C0.25 7.3034 0.51635 6.44829 1.00142 5.62501C1.36623 5.00586 1.87001 4.37787 2.52208 3.81865L1.18276 2.5431C0.882811 2.25744 0.871232 1.78271 1.1569 1.48276ZM3.61526 4.85977C3.03689 5.3307 2.59989 5.86692 2.29378 6.38647C1.90078 7.05348 1.75 7.64612 1.75 8C1.75 8.58558 2.15718 9.73705 3.18989 10.7584C4.19123 11.7487 5.75336 12.5833 8 12.5833C9.22002 12.5833 10.2353 12.3373 11.0673 11.9569L9.41783 10.386C8.99853 10.6183 8.51364 10.75 7.99994 10.75C6.46083 10.75 5.14994 9.55285 5.14994 8C5.14994 7.51274 5.28141 7.0571 5.50883 6.66317L3.61526 4.85977ZM6.67244 7.77138C6.6576 7.84576 6.64994 7.92219 6.64994 8C6.64994 8.6563 7.21945 9.25 7.99994 9.25C8.07138 9.25 8.14131 9.2449 8.20936 9.23511L6.67244 7.77138ZM8 3.41667C7.2912 3.41667 6.65328 3.49973 6.08186 3.6426C5.97438 3.66948 5.86918 3.69849 5.76624 3.72948C5.36961 3.84891 4.95127 3.62419 4.83185 3.22757C4.71242 2.83095 4.93714 2.41261 5.33376 2.29318C5.45947 2.25533 5.58754 2.22002 5.71801 2.1874C6.4127 2.0137 7.17302 1.91667 8 1.91667C10.6534 1.91667 12.5912 2.91541 13.8649 4.17508C15.1072 5.40371 15.75 6.91892 15.75 8C15.75 8.79707 15.4012 9.81013 14.757 10.7556C14.672 10.8804 14.5813 11.0048 14.4849 11.1283C14.2299 11.4548 13.7586 11.5127 13.4321 11.2577C13.1057 11.0028 13.0478 10.5315 13.3027 10.205C13.379 10.1073 13.4506 10.0091 13.5174 9.91105C14.0459 9.13529 14.25 8.41236 14.25 8C14.25 7.41442 13.8428 6.26295 12.8101 5.24159C11.8088 4.25126 10.2466 3.41667 8 3.41667Z" fill="#50A7EA"/>
</svg>
