<svg width="24" height="24" viewBox="0 0 24 24" fill="none" xmlns="http://www.w3.org/2000/svg">
    <path d="M12 4H8.5C7.67157 4 7 4.67157 7 5.5V5.5M12 4H15.5L17.4545 4M12 4L17.4545 4M17.4545 4L20 4C21.1046 4 22 4.89543 22 6V18C22 19.1046 21.1046 20 20 20H9C7.89543 20 7 19.1046 7 18V17M9 8H4M9 11H6M9 14L2 14M13 14H18.5C18.7761 14 19 14.2239 19 14.5V16.5C19 16.7761 18.7761 17 18.5 17H13C12.7239 17 12.5 16.7761 12.5 16.5V14.5C12.5 14.2239 12.7239 14 13 14Z" stroke="#999999" stroke-width="1.5" stroke-linecap="round" stroke-linejoin="round"/>
</svg>
