<svg width="16" height="16" viewBox="0 0 16 16" fill="none" xmlns="http://www.w3.org/2000/svg">
    <path d="M5.6 6.8H10.4M5.6 9.2H8M14 8C14 11.3137 11.3137 14 8 14C7.31638 14 6.73012 13.9026 6.18576 13.7079C5.67128 13.5239 5.41402 13.4319 5.31531 13.4086C4.40456 13.1945 4.02674 13.8186 3.24179 13.9494C2.85625 14.0137 2.5132 13.698 2.5452 13.3085C2.57317 12.9679 2.80873 12.6457 2.90273 12.3186C3.09813 11.6387 2.83298 11.1231 2.55284 10.5184C2.19809 9.75258 2 8.8994 2 8C2 4.68629 4.68629 2 8 2C11.3137 2 14 4.68629 14 8Z" stroke="white" stroke-width="1.5" stroke-linecap="round" stroke-linejoin="round"/>
</svg>
