<svg width="16" height="16" viewBox="0 0 16 16" fill="none" xmlns="http://www.w3.org/2000/svg">
    <path fill-rule="evenodd" clip-rule="evenodd" d="M7.99967 2.0835C4.73199 2.0835 2.08301 4.73248 2.08301 8.00016C2.08301 8.88833 2.27843 9.72893 2.6278 10.4831C2.64675 10.524 2.66643 10.5659 2.68657 10.6088C2.96989 11.2117 3.34377 12.0074 3.05686 13.0058C2.99712 13.2137 2.8974 13.4278 2.83004 13.5724L2.82999 13.5725C2.8162 13.6021 2.80377 13.6287 2.79332 13.6519C2.75597 13.7345 2.73102 13.7963 2.71463 13.8439C2.86637 13.8033 2.99307 13.7386 3.17391 13.6462L3.17397 13.6462L3.1741 13.6461C3.26323 13.6006 3.3655 13.5484 3.49039 13.4891C3.91652 13.2866 4.45573 13.1074 5.18838 13.2797L5.18839 13.2797C5.3407 13.3155 5.65294 13.4273 6.12714 13.597L6.23646 13.6361C6.75013 13.8199 7.31475 13.9168 7.99967 13.9168C11.2674 13.9168 13.9163 11.2678 13.9163 8.00016C13.9163 4.73248 11.2674 2.0835 7.99967 2.0835ZM0.583008 8.00016C0.583008 3.90405 3.90356 0.583496 7.99967 0.583496C12.0958 0.583496 15.4163 3.90405 15.4163 8.00016C15.4163 12.0963 12.0958 15.4168 7.99967 15.4168C7.16545 15.4168 6.42727 15.2974 5.73125 15.0485C5.44386 14.9457 5.23358 14.8705 5.08117 14.8176C5.00509 14.7912 4.94757 14.7718 4.90461 14.758C4.8662 14.7457 4.84892 14.7409 4.84542 14.74L4.8454 14.74C4.84467 14.7398 4.84455 14.7397 4.84498 14.7398C4.5657 14.6742 4.38903 14.7228 4.13424 14.8439C4.09075 14.8645 4.03876 14.8915 3.97928 14.9223C3.71539 15.0592 3.30427 15.2724 2.83603 15.3504L2.71277 14.6106L2.83603 15.3504C1.92573 15.5021 1.11576 14.7568 1.1913 13.8371C1.21829 13.5084 1.34146 13.2221 1.42649 13.034C1.4518 12.978 1.4741 12.9296 1.49381 12.8869C1.55449 12.7553 1.59072 12.6767 1.61521 12.5915L2.33604 12.7987L1.61521 12.5915C1.74214 12.1498 1.60368 11.8409 1.26675 11.1136L1.93475 10.8042L1.26675 11.1136C0.827782 10.166 0.583008 9.11066 0.583008 8.00016ZM4.84498 14.7398L5.01669 14.0098L4.84499 14.7398L4.84498 14.7398ZM4.58301 6.66683C4.58301 6.25262 4.91879 5.91683 5.33301 5.91683H10.6663C11.0806 5.91683 11.4163 6.25262 11.4163 6.66683C11.4163 7.08104 11.0806 7.41683 10.6663 7.41683H5.33301C4.91879 7.41683 4.58301 7.08104 4.58301 6.66683ZM5.33301 8.5835C4.91879 8.5835 4.58301 8.91928 4.58301 9.3335C4.58301 9.74771 4.91879 10.0835 5.33301 10.0835H7.99967C8.41389 10.0835 8.74967 9.74771 8.74967 9.3335C8.74967 8.91928 8.41389 8.5835 7.99967 8.5835H5.33301Z" fill="#676A6F"/>
</svg>
