<svg width="16" height="16" viewBox="0 0 16 16" fill="none" xmlns="http://www.w3.org/2000/svg">
    <path d="M9.63636 3H4.77778C3.24365 3 2 4.24365 2 5.77778V5.77778V10C2 11.6569 3.34315 13 5 13H11C12.6569 13 14 11.6569 14 10V7M10.7273 6.88889L9.11497 7.98367C8.13795 8.64707 6.83557 8.56409 5.95066 7.78203V7.78203C4.98606 6.92956 4.1108 5.98106 3.33841 4.95122L3 4.5" stroke="white" stroke-width="1.5" stroke-linecap="round" stroke-linejoin="round"/>
    <path d="M13.5 5C14.3284 5 15 4.32843 15 3.5C15 2.67157 14.3284 2 13.5 2C12.6716 2 12 2.67157 12 3.5C12 4.32843 12.6716 5 13.5 5Z" fill="white"/>
</svg>
