<svg width="16" height="16" viewBox="0 0 16 16" fill="none" xmlns="http://www.w3.org/2000/svg">
    <path fill-rule="evenodd" clip-rule="evenodd" d="M2.56262 4.74776C2.56262 4.05864 3.12126 3.5 3.81038 3.5H6.77957C6.92149 3.5 7.04824 3.58877 7.09676 3.72213C7.36091 4.44816 8.05098 4.93143 8.82357 4.93143H12.8799C13.2562 4.93143 13.5613 5.23651 13.5613 5.61286V9.52725C13.5613 10.1134 13.0861 10.5886 12.5 10.5886C12.0858 10.5886 11.75 10.9244 11.75 11.3386C11.75 11.7528 12.0858 12.0886 12.5 12.0886C13.9145 12.0886 15.0613 10.9418 15.0613 9.52725V5.61286C15.0613 4.40809 14.0846 3.43143 12.8799 3.43143H8.82357C8.68165 3.43143 8.55489 3.34266 8.50637 3.20929C8.24223 2.48326 7.55216 2 6.77957 2H3.81038C2.29284 2 1.06262 3.23022 1.06262 4.74776V9.77624C1.06262 11.0533 2.09789 12.0886 3.37496 12.0886C3.78917 12.0886 4.12496 11.7528 4.12496 11.3386C4.12496 10.9244 3.78917 10.5886 3.37496 10.5886C2.92632 10.5886 2.56262 10.2249 2.56262 9.77624V4.74776ZM5.74997 9.30769C5.74997 8.4474 6.44737 7.75 7.30766 7.75C8.16795 7.75 8.86535 8.4474 8.86535 9.30769C8.86535 10.168 8.16795 10.8654 7.30766 10.8654C6.44737 10.8654 5.74997 10.168 5.74997 9.30769ZM10.3654 9.30769C10.3654 7.61898 8.99638 6.25 7.30766 6.25C5.61894 6.25 4.24997 7.61898 4.24997 9.30769C4.24997 10.9964 5.61894 12.3654 7.30766 12.3654C7.88004 12.3654 8.41568 12.2081 8.87374 11.9344L10.4696 13.5303C10.7625 13.8232 11.2374 13.8232 11.5303 13.5303C11.8232 13.2374 11.8232 12.7626 11.5303 12.4697L9.9344 10.8738C10.2081 10.4157 10.3654 9.88007 10.3654 9.30769Z" fill="white"/>
</svg>
