<svg width="16" height="16" viewBox="0 0 16 16" fill="#7dd3fc" xmlns="http://www.w3.org/2000/svg">
    <mask id="path-1-inside-1_10_723" fill="#7dd3fc">
        <path d="M9.302 1.25613C9.17075 1.02671 8.98121 0.836037 8.75257 0.703427C8.52393 0.570817 8.26431 0.500977 8 0.500977C7.73568 0.500977 7.47606 0.570817 7.24742 0.703427C7.01878 0.836037 6.82924 1.02671 6.698 1.25613L4.994 4.23613C4.92809 4.35137 4.91066 4.48806 4.94554 4.61615C4.98042 4.74424 5.06476 4.85322 5.18 4.91913C5.29523 4.98504 5.43193 5.00247 5.56002 4.96758C5.68811 4.9327 5.79709 4.84837 5.863 4.73313L7.566 1.75213C7.60975 1.67566 7.67293 1.6121 7.74914 1.5679C7.82535 1.52369 7.91189 1.50041 8 1.50041C8.0881 1.50041 8.17464 1.52369 8.25085 1.5679C8.32707 1.6121 8.39025 1.67566 8.434 1.75213L10.974 6.19613L9.718 5.85913C9.5899 5.82465 9.45335 5.84247 9.33839 5.90867C9.22343 5.97487 9.13947 6.08403 9.105 6.21213C9.07052 6.34023 9.08834 6.47678 9.15454 6.59174C9.22074 6.7067 9.3299 6.79065 9.458 6.82513L11.873 7.47213C11.9364 7.48923 12.0026 7.49366 12.0677 7.48517C12.1329 7.47668 12.1957 7.45544 12.2526 7.42265C12.3096 7.38987 12.3595 7.34619 12.3995 7.29411C12.4396 7.24203 12.4689 7.18257 12.486 7.11913L13.133 4.70413C13.15 4.6407 13.1543 4.57454 13.1458 4.50944C13.1372 4.44433 13.1159 4.38154 13.0831 4.32467C13.0503 4.26779 13.0066 4.21794 12.9545 4.17795C12.9024 4.13797 12.8429 4.10864 12.7795 4.09163C12.7161 4.07462 12.6499 4.07028 12.5848 4.07884C12.5197 4.0874 12.4569 4.1087 12.4 4.14153C12.3432 4.17435 12.2933 4.21806 12.2533 4.27015C12.2133 4.32224 12.184 4.3817 12.167 4.44513L11.834 5.68713L9.302 1.25613V1.25613ZM2.973 7.77313L1.718 8.11013C1.5899 8.14461 1.45335 8.12679 1.33839 8.06059C1.22343 7.99439 1.13947 7.88523 1.105 7.75713C1.07052 7.62903 1.08834 7.49248 1.15454 7.37752C1.22074 7.26256 1.3299 7.17861 1.458 7.14413L3.874 6.49713C4.00196 6.4629 4.13828 6.48085 4.25302 6.54703C4.36776 6.61322 4.45155 6.72223 4.486 6.85013L5.133 9.26513C5.16734 9.39323 5.14939 9.52973 5.0831 9.64459C5.01681 9.75946 4.9076 9.84328 4.7795 9.87763C4.6514 9.91198 4.5149 9.89403 4.40003 9.82773C4.28517 9.76144 4.20134 9.65223 4.167 9.52413L3.834 8.28213L1.289 12.7361C1.24557 12.8122 1.22286 12.8983 1.22316 12.9858C1.22346 13.0734 1.24674 13.1593 1.29068 13.2351C1.33462 13.3108 1.39768 13.3737 1.47355 13.4174C1.54942 13.4611 1.63544 13.4841 1.723 13.4841H5C5.1326 13.4841 5.25978 13.5368 5.35355 13.6306C5.44732 13.7243 5.5 13.8515 5.5 13.9841C5.5 14.1167 5.44732 14.2439 5.35355 14.3377C5.25978 14.4315 5.1326 14.4841 5 14.4841H1.723C1.46032 14.484 1.20227 14.415 0.974664 14.2839C0.747059 14.1527 0.55788 13.9641 0.426054 13.7369C0.294228 13.5097 0.224376 13.2519 0.223489 12.9892C0.222601 12.7265 0.290708 12.4682 0.420997 12.2401L2.973 7.77313V7.77313ZM13.863 9.23613C13.8313 9.17749 13.7882 9.12578 13.7362 9.08404C13.6843 9.04229 13.6245 9.01136 13.5604 8.99307C13.4963 8.97477 13.4292 8.96947 13.363 8.97748C13.2968 8.9855 13.2329 9.00666 13.1751 9.03974C13.1172 9.07281 13.0665 9.11712 13.026 9.17006C12.9855 9.223 12.956 9.2835 12.9392 9.34802C12.9224 9.41253 12.9187 9.47974 12.9283 9.54571C12.9379 9.61167 12.9606 9.67506 12.995 9.73213L14.711 12.7361C14.7544 12.8122 14.7771 12.8983 14.7768 12.9858C14.7765 13.0734 14.7533 13.1593 14.7093 13.2351C14.6654 13.3108 14.6023 13.3737 14.5264 13.4174C14.4506 13.4611 14.3646 13.4841 14.277 13.4841H8.707L9.354 12.8381C9.44775 12.7442 9.50037 12.617 9.50027 12.4843C9.50018 12.3516 9.44738 12.2244 9.3535 12.1306C9.30701 12.0842 9.25183 12.0474 9.19112 12.0223C9.1304 11.9972 9.06534 11.9843 8.99964 11.9844C8.86696 11.9844 8.73975 12.0372 8.646 12.1311L7.146 13.6311C7.09934 13.6774 7.06232 13.7325 7.03705 13.7932C7.01178 13.8538 6.99877 13.9189 6.99877 13.9846C6.99877 14.0504 7.01178 14.1154 7.03705 14.1761C7.06232 14.2368 7.09934 14.2918 7.146 14.3381L8.646 15.8381C8.73975 15.932 8.86696 15.9848 8.99964 15.9849C9.06534 15.985 9.1304 15.9721 9.19112 15.947C9.25183 15.9219 9.30701 15.8851 9.3535 15.8386C9.39998 15.7922 9.43687 15.7371 9.46206 15.6764C9.48724 15.6157 9.50023 15.5507 9.50027 15.485C9.50032 15.4193 9.48743 15.3542 9.46233 15.2935C9.43723 15.2328 9.40042 15.1776 9.354 15.1311L8.707 14.4841H14.277C14.5397 14.484 14.7977 14.415 15.0253 14.2839C15.2529 14.1527 15.4421 13.9641 15.5739 13.7369C15.7058 13.5097 15.7756 13.2519 15.7765 12.9892C15.7774 12.7265 15.7093 12.4682 15.579 12.2401L13.863 9.23613V9.23613Z"/>
    </mask>
    <path d="M9.302 1.25613C9.17075 1.02671 8.98121 0.836037 8.75257 0.703427C8.52393 0.570817 8.26431 0.500977 8 0.500977C7.73568 0.500977 7.47606 0.570817 7.24742 0.703427C7.01878 0.836037 6.82924 1.02671 6.698 1.25613L4.994 4.23613C4.92809 4.35137 4.91066 4.48806 4.94554 4.61615C4.98042 4.74424 5.06476 4.85322 5.18 4.91913C5.29523 4.98504 5.43193 5.00247 5.56002 4.96758C5.68811 4.9327 5.79709 4.84837 5.863 4.73313L7.566 1.75213C7.60975 1.67566 7.67293 1.6121 7.74914 1.5679C7.82535 1.52369 7.91189 1.50041 8 1.50041C8.0881 1.50041 8.17464 1.52369 8.25085 1.5679C8.32707 1.6121 8.39025 1.67566 8.434 1.75213L10.974 6.19613L9.718 5.85913C9.5899 5.82465 9.45335 5.84247 9.33839 5.90867C9.22343 5.97487 9.13947 6.08403 9.105 6.21213C9.07052 6.34023 9.08834 6.47678 9.15454 6.59174C9.22074 6.7067 9.3299 6.79065 9.458 6.82513L11.873 7.47213C11.9364 7.48923 12.0026 7.49366 12.0677 7.48517C12.1329 7.47668 12.1957 7.45544 12.2526 7.42265C12.3096 7.38987 12.3595 7.34619 12.3995 7.29411C12.4396 7.24203 12.4689 7.18257 12.486 7.11913L13.133 4.70413C13.15 4.6407 13.1543 4.57454 13.1458 4.50944C13.1372 4.44433 13.1159 4.38154 13.0831 4.32467C13.0503 4.26779 13.0066 4.21794 12.9545 4.17795C12.9024 4.13797 12.8429 4.10864 12.7795 4.09163C12.7161 4.07462 12.6499 4.07028 12.5848 4.07884C12.5197 4.0874 12.4569 4.1087 12.4 4.14153C12.3432 4.17435 12.2933 4.21806 12.2533 4.27015C12.2133 4.32224 12.184 4.3817 12.167 4.44513L11.834 5.68713L9.302 1.25613V1.25613ZM2.973 7.77313L1.718 8.11013C1.5899 8.14461 1.45335 8.12679 1.33839 8.06059C1.22343 7.99439 1.13947 7.88523 1.105 7.75713C1.07052 7.62903 1.08834 7.49248 1.15454 7.37752C1.22074 7.26256 1.3299 7.17861 1.458 7.14413L3.874 6.49713C4.00196 6.4629 4.13828 6.48085 4.25302 6.54703C4.36776 6.61322 4.45155 6.72223 4.486 6.85013L5.133 9.26513C5.16734 9.39323 5.14939 9.52973 5.0831 9.64459C5.01681 9.75946 4.9076 9.84328 4.7795 9.87763C4.6514 9.91198 4.5149 9.89403 4.40003 9.82773C4.28517 9.76144 4.20134 9.65223 4.167 9.52413L3.834 8.28213L1.289 12.7361C1.24557 12.8122 1.22286 12.8983 1.22316 12.9858C1.22346 13.0734 1.24674 13.1593 1.29068 13.2351C1.33462 13.3108 1.39768 13.3737 1.47355 13.4174C1.54942 13.4611 1.63544 13.4841 1.723 13.4841H5C5.1326 13.4841 5.25978 13.5368 5.35355 13.6306C5.44732 13.7243 5.5 13.8515 5.5 13.9841C5.5 14.1167 5.44732 14.2439 5.35355 14.3377C5.25978 14.4315 5.1326 14.4841 5 14.4841H1.723C1.46032 14.484 1.20227 14.415 0.974664 14.2839C0.747059 14.1527 0.55788 13.9641 0.426054 13.7369C0.294228 13.5097 0.224376 13.2519 0.223489 12.9892C0.222601 12.7265 0.290708 12.4682 0.420997 12.2401L2.973 7.77313V7.77313ZM13.863 9.23613C13.8313 9.17749 13.7882 9.12578 13.7362 9.08404C13.6843 9.04229 13.6245 9.01136 13.5604 8.99307C13.4963 8.97477 13.4292 8.96947 13.363 8.97748C13.2968 8.9855 13.2329 9.00666 13.1751 9.03974C13.1172 9.07281 13.0665 9.11712 13.026 9.17006C12.9855 9.223 12.956 9.2835 12.9392 9.34802C12.9224 9.41253 12.9187 9.47974 12.9283 9.54571C12.9379 9.61167 12.9606 9.67506 12.995 9.73213L14.711 12.7361C14.7544 12.8122 14.7771 12.8983 14.7768 12.9858C14.7765 13.0734 14.7533 13.1593 14.7093 13.2351C14.6654 13.3108 14.6023 13.3737 14.5264 13.4174C14.4506 13.4611 14.3646 13.4841 14.277 13.4841H8.707L9.354 12.8381C9.44775 12.7442 9.50037 12.617 9.50027 12.4843C9.50018 12.3516 9.44738 12.2244 9.3535 12.1306C9.30701 12.0842 9.25183 12.0474 9.19112 12.0223C9.1304 11.9972 9.06534 11.9843 8.99964 11.9844C8.86696 11.9844 8.73975 12.0372 8.646 12.1311L7.146 13.6311C7.09934 13.6774 7.06232 13.7325 7.03705 13.7932C7.01178 13.8538 6.99877 13.9189 6.99877 13.9846C6.99877 14.0504 7.01178 14.1154 7.03705 14.1761C7.06232 14.2368 7.09934 14.2918 7.146 14.3381L8.646 15.8381C8.73975 15.932 8.86696 15.9848 8.99964 15.9849C9.06534 15.985 9.1304 15.9721 9.19112 15.947C9.25183 15.9219 9.30701 15.8851 9.3535 15.8386C9.39998 15.7922 9.43687 15.7371 9.46206 15.6764C9.48724 15.6157 9.50023 15.5507 9.50027 15.485C9.50032 15.4193 9.48743 15.3542 9.46233 15.2935C9.43723 15.2328 9.40042 15.1776 9.354 15.1311L8.707 14.4841H14.277C14.5397 14.484 14.7977 14.415 15.0253 14.2839C15.2529 14.1527 15.4421 13.9641 15.5739 13.7369C15.7058 13.5097 15.7756 13.2519 15.7765 12.9892C15.7774 12.7265 15.7093 12.4682 15.579 12.2401L13.863 9.23613V9.23613Z"
          fill="#7dd3fc" stroke="#7dd3fc" stroke-width="2" mask="url(#path-1-inside-1_10_723)"/>
</svg>
